<svg width="3146" height="744" viewBox="0 0 3146 744" fill="none" xmlns="http://www.w3.org/2000/svg">
<g filter="url(#filter0_dd_11_97)">
<path d="M1380 186.25C1385.5 192.75 1388.25 199.5 1388.25 206.5C1388.25 209.5 1388 212.75 1387.5 216.25C1387.5 219.25 1387.25 222 1386.75 224.5C1385.25 230 1382 235.25 1377 240.25C1373 243.25 1367.5 245.5 1360.5 247C1357 248 1353.5 248.75 1350 249.25C1346.5 249.75 1342.75 250.5 1338.75 251.5C1335.25 252 1331.75 252.25 1328.25 252.25C1324.75 252.25 1321 252.25 1317 252.25H1278.75C1269.75 252.75 1260.75 253 1251.75 253C1243.25 253 1234.75 253 1226.25 253C1226.75 268.5 1227 285.25 1227 303.25C1227 320.75 1226.75 341.25 1226.25 364.75C1226.25 388.25 1226 415.5 1225.5 446.5C1225.5 477.5 1225.5 513.5 1225.5 554.5V611.5C1225.5 616.5 1225.75 620.25 1226.25 622.75C1226.25 624.75 1226.25 626.75 1226.25 628.75C1226.25 630.25 1226 632.25 1225.5 634.75C1224.5 639.25 1223.75 644.5 1223.25 650.5C1223.25 653 1223 655.5 1222.5 658C1222 660 1221.25 662.25 1220.25 664.75C1218.25 666.75 1217.25 668.25 1217.25 669.25L1215 673.75C1212.5 678.75 1207.75 683.5 1200.75 688C1189.75 693.5 1177.5 694.75 1164 691.75C1155.5 690.75 1149 688.5 1144.5 685C1140 680.5 1136.75 676 1134.75 671.5C1131.75 666 1130 660.75 1129.5 655.75C1128 651.25 1127.25 646.5 1127.25 641.5V256C1124.25 256 1118 256 1108.5 256C1099 256 1088.75 256 1077.75 256C1067.25 255.5 1057.25 255 1047.75 254.5C1038.25 254 1031.75 253.5 1028.25 253C1025.25 252.5 1020.5 251.75 1014 250.75C1008 249.75 1003 248.75 999 247.75C988.5 244.75 980.25 240 974.25 233.5C968.75 227 966 219.75 966 211.75C966 208.75 966 205.75 966 202.75C966 199.75 966.5 197 967.5 194.5C969 188.5 973 183.5 979.5 179.5C981.5 178 984.5 176.25 988.5 174.25C993 171.75 997.25 170 1001.25 169C1007.25 167 1014.75 165.5 1023.75 164.5C1027.75 164 1031.75 163.75 1035.75 163.75C1039.75 163.75 1044 163.75 1048.5 163.75C1066 163.75 1082.5 163.75 1098 163.75C1114 163.75 1130.75 163.5 1148.25 163C1177.25 162.5 1206 162.5 1234.5 163C1263.5 163 1292.25 163.5 1320.75 164.5C1327.25 165 1333.5 165.75 1339.5 166.75C1345.5 167.75 1351.5 169.5 1357.5 172C1362 173.5 1366.25 175.5 1370.25 178C1374.25 180 1377.5 182.75 1380 186.25ZM1813.27 643C1813.77 646 1814.02 649 1814.02 652C1814.52 654.5 1814.77 657.5 1814.77 661C1814.77 667 1813.02 672.5 1809.52 677.5C1808.02 680 1806.02 682.5 1803.52 685C1801.02 687 1798.02 688.75 1794.52 690.25C1782.02 697.25 1768.77 699.75 1754.77 697.75C1747.77 695.75 1741.52 692.5 1736.02 688C1735.02 687 1734.27 686.5 1733.77 686.5C1733.27 686 1732.77 685.25 1732.27 684.25C1731.77 683.75 1731.27 683.25 1730.77 682.75C1730.27 681.75 1729.52 681 1728.52 680.5C1726.02 678 1724.02 675.75 1722.52 673.75C1721.02 671.25 1719.52 668.75 1718.02 666.25C1717.02 663.75 1715.77 661.5 1714.27 659.5C1713.27 657 1712.02 654.5 1710.52 652C1709.52 650 1708.52 648.25 1707.52 646.75C1706.52 644.75 1705.77 642.75 1705.27 640.75C1703.27 636.25 1702.02 632.25 1701.52 628.75L1685.77 592C1651.27 592 1616.77 592.25 1582.27 592.75C1548.27 592.75 1514.02 592.5 1479.52 592L1463.77 628.75C1462.77 630.75 1462.02 632.75 1461.52 634.75C1461.52 636.75 1461.02 638.75 1460.02 640.75C1459.02 642.75 1458.02 644.75 1457.02 646.75C1456.52 648.25 1455.77 650 1454.77 652C1453.27 654.5 1451.77 657 1450.27 659.5C1449.27 661.5 1448.02 663.75 1446.52 666.25C1445.52 668.75 1444.27 671.25 1442.77 673.75C1441.27 675.75 1439.27 678 1436.77 680.5C1435.77 681 1435.02 681.75 1434.52 682.75C1434.02 683.25 1433.52 683.75 1433.02 684.25C1432.52 685.25 1432.02 686 1431.52 686.5C1431.02 686.5 1430.27 687 1429.27 688C1423.77 692.5 1417.52 695.75 1410.52 697.75C1396.52 699.75 1383.27 697.25 1370.77 690.25C1367.27 688.75 1364.27 687 1361.77 685C1359.27 682.5 1357.27 680 1355.77 677.5C1352.27 672.5 1350.52 667 1350.52 661C1350.52 657.5 1350.52 654.5 1350.52 652C1351.02 649 1351.52 646 1352.02 643C1353.02 638.5 1354.27 634 1355.77 629.5C1357.27 625 1358.02 622.75 1358.02 622.75L1514.02 238.75L1518.52 226.75C1519.52 223.75 1520.77 221 1522.27 218.5C1523.77 216 1525.02 213 1526.02 209.5C1528.52 203 1531.27 197.25 1534.27 192.25C1535.77 189.25 1537.52 186.5 1539.52 184C1541.52 181.5 1543.52 179 1545.52 176.5C1548.52 172.5 1552.77 169.25 1558.27 166.75C1565.27 164.25 1573.27 163 1582.27 163C1591.77 163 1600.02 164.25 1607.02 166.75C1612.52 169.25 1616.77 172.5 1619.77 176.5C1623.27 181 1627.02 186.25 1631.02 192.25C1634.02 197.25 1636.77 203 1639.27 209.5C1640.27 213 1641.52 216 1643.02 218.5C1644.52 221 1645.77 223.75 1646.77 226.75L1651.27 238.75L1807.27 622.75C1807.27 622.75 1808.02 625 1809.52 629.5C1811.02 634 1812.27 638.5 1813.27 643ZM1635.52 459.25C1629.02 444.75 1622.27 429.75 1615.27 414.25C1608.77 398.75 1601.77 383 1594.27 367C1592.27 362.5 1590.27 358 1588.27 353.5C1586.27 348.5 1584.27 343.75 1582.27 339.25C1580.77 343.75 1579.02 348.5 1577.02 353.5C1575.02 358 1573.02 362.5 1571.02 367C1563.52 383 1556.27 398.75 1549.27 414.25C1542.77 429.75 1536.27 444.75 1529.77 459.25L1516.27 492.25H1649.02L1635.52 459.25ZM1898.19 614.5L1898.94 555.25L1899.69 445C1900.19 429 1900.44 412.5 1900.44 395.5C1900.44 378.5 1900.44 361 1900.44 343C1900.44 325 1900.44 309 1900.44 295C1900.44 281 1900.94 265.25 1901.94 247.75V244.75C1902.44 239.75 1902.69 234.75 1902.69 229.75C1903.19 224.25 1903.44 218.75 1903.44 213.25C1903.94 204.25 1906.69 194.5 1911.69 184C1915.19 177 1920.44 171 1927.44 166C1935.44 162 1943.19 160 1950.69 160C1954.69 160 1958.19 160.25 1961.19 160.75C1964.69 160.75 1967.94 161 1970.94 161.5C1977.44 162.5 1983.19 165.5 1988.19 170.5C1991.19 173 1993.94 177 1996.44 182.5C1997.44 185.5 1998.19 188.5 1998.69 191.5C1999.69 194 2000.44 196.75 2000.94 199.75C2001.44 203.25 2001.69 206.5 2001.69 209.5C2002.19 212.5 2002.44 215.5 2002.44 218.5C2002.44 222 2002.19 225.25 2001.69 228.25C2001.69 230.75 2001.69 233.5 2001.69 236.5V249.25L1997.19 638.5V646C1997.19 647.5 1996.94 649.5 1996.44 652C1996.44 654 1996.19 656.5 1995.69 659.5C1994.69 662 1993.69 664.75 1992.69 667.75C1992.19 670.25 1991.44 673 1990.44 676C1988.94 678.5 1987.19 681 1985.19 683.5C1983.69 685.5 1981.69 687.5 1979.19 689.5C1975.19 693.5 1968.69 696.25 1959.69 697.75C1946.19 700.75 1933.44 699.5 1921.44 694C1915.44 690 1911.19 685 1908.69 679C1907.19 677.5 1906.44 676 1906.44 674.5C1905.94 673.5 1905.44 672.75 1904.94 672.25C1904.44 671.75 1903.94 671 1903.44 670C1902.44 667.5 1901.69 665 1901.19 662.5C1900.69 659.5 1900.44 656.5 1900.44 653.5C1899.94 651 1899.44 648.5 1898.94 646C1898.94 643.5 1898.69 641 1898.19 638.5C1897.69 634.5 1897.69 630.25 1898.19 625.75V614.5ZM2431.64 637C2432.64 639.5 2433.14 643.25 2433.14 648.25C2433.14 652.75 2433.14 656.5 2433.14 659.5C2433.14 663.5 2432.39 667.25 2430.89 670.75C2429.39 674.25 2427.39 677.5 2424.89 680.5C2420.39 686.5 2413.89 691 2405.39 694C2393.39 698 2382.14 700 2371.64 700C2366.14 700.5 2360.39 700.75 2354.39 700.75C2348.39 700.75 2342.39 701.25 2336.39 702.25H2333.39C2294.89 702.75 2255.14 702.75 2214.14 702.25C2204.14 701.75 2192.89 701.75 2180.39 702.25C2167.89 703.25 2155.64 703 2143.64 701.5C2131.64 700.5 2120.64 697.75 2110.64 693.25C2101.14 688.25 2094.39 680.5 2090.39 670C2089.39 667.5 2088.64 665.25 2088.14 663.25C2087.64 660.75 2087.39 658.25 2087.39 655.75C2085.39 638.75 2084.64 622 2085.14 605.5C2085.64 589 2085.89 572.75 2085.89 556.75L2087.39 448V347.5C2087.39 329.5 2087.39 313.5 2087.39 299.5C2087.89 285.5 2088.39 270 2088.89 253V249.25C2089.39 244.25 2089.64 239.25 2089.64 234.25C2090.14 229.25 2090.39 224.25 2090.39 219.25C2091.39 207.75 2094.14 198 2098.64 190C2101.64 182.5 2106.89 176.5 2114.39 172C2120.89 167.5 2128.64 165.25 2137.64 165.25C2141.14 165.25 2144.39 165.5 2147.39 166C2150.89 166 2154.14 166.25 2157.14 166.75C2160.14 167.25 2162.89 168.25 2165.39 169.75C2168.39 171.25 2171.39 173.25 2174.39 175.75C2177.39 179.25 2180.14 183.5 2182.64 188.5C2184.64 194 2185.89 199.5 2186.39 205C2186.89 208.5 2187.39 211.75 2187.89 214.75C2188.39 217.75 2188.64 220.75 2188.64 223.75C2187.64 226.75 2187.14 229.75 2187.14 232.75C2187.14 235.75 2187.14 238.5 2187.14 241V254.5L2184.14 607.75L2332.64 609.25H2367.89C2370.89 609.25 2374.14 609.5 2377.64 610C2381.14 610 2384.64 610.25 2388.14 610.75C2392.14 611.25 2395.64 611.75 2398.64 612.25C2401.64 612.75 2404.64 613.5 2407.64 614.5C2413.14 616 2417.64 618.5 2421.14 622C2426.64 627 2430.14 632 2431.64 637ZM2881.6 475.75C2884.1 482.75 2885.85 490.75 2886.85 499.75C2888.35 508.25 2889.1 517 2889.1 526C2889.1 535 2888.35 544 2886.85 553C2885.85 561.5 2884.35 569 2882.35 575.5C2874.35 603.5 2858.35 627 2834.35 646C2810.35 664.5 2782.85 678 2751.85 686.5C2721.35 695 2689.6 698 2656.6 695.5C2624.1 693 2595.1 684.75 2569.6 670.75C2553.6 661.75 2539.85 650.75 2528.35 637.75C2516.85 624.75 2507.1 610.25 2499.1 594.25C2496.1 588.75 2494.1 582.5 2493.1 575.5C2492.6 568 2493.35 561 2495.35 554.5C2497.35 547.5 2500.6 541.5 2505.1 536.5C2509.6 531 2515.85 527.25 2523.85 525.25C2528.85 524.25 2534.35 523.75 2540.35 523.75C2546.85 523.75 2553.1 524.75 2559.1 526.75C2565.1 528.25 2570.6 531 2575.6 535C2580.6 538.5 2584.6 543.5 2587.6 550C2593.1 560.5 2600.85 570.25 2610.85 579.25C2621.35 587.75 2632.35 594.75 2643.85 600.25C2660.35 605.75 2676.85 608 2693.35 607C2710.35 606 2725.6 602.25 2739.1 595.75C2753.1 589.25 2764.35 580.5 2772.85 569.5C2781.35 558 2785.6 545 2785.6 530.5C2785.6 518.5 2783.85 508.75 2780.35 501.25C2776.85 493.25 2771.85 486.75 2765.35 481.75C2759.35 476.25 2751.85 471.75 2742.85 468.25C2734.35 464.75 2724.85 461.75 2714.35 459.25C2702.35 456.75 2690.1 455 2677.6 454C2665.6 453 2653.35 451.75 2640.85 450.25C2628.35 448.75 2616.1 446.75 2604.1 444.25C2592.1 441.75 2580.35 438 2568.85 433C2545.85 423.5 2528.35 409 2516.35 389.5C2504.35 370 2497.1 349 2494.6 326.5C2492.6 304 2495.35 281.75 2502.85 259.75C2510.35 237.25 2522.35 218 2538.85 202C2554.85 187.5 2573.85 177.25 2595.85 171.25C2618.35 164.75 2643.1 161 2670.1 160C2685.1 159.5 2700.1 160 2715.1 161.5C2730.6 163 2745.35 165.5 2759.35 169C2773.85 172.5 2787.1 177 2799.1 182.5C2811.6 188 2822.35 194.5 2831.35 202C2837.85 207 2844.35 213.75 2850.85 222.25C2857.35 230.25 2862.35 239 2865.85 248.5C2869.35 257.5 2870.35 266.25 2868.85 274.75C2867.85 283.25 2862.6 290.5 2853.1 296.5C2845.1 301.5 2837.35 303.75 2829.85 303.25C2822.85 302.25 2816.1 300 2809.6 296.5C2803.1 292.5 2796.85 288 2790.85 283C2784.85 278 2779.35 273.5 2774.35 269.5C2760.85 259.5 2744.1 252.75 2724.1 249.25C2704.1 245.75 2685.35 245 2667.85 247C2656.85 248.5 2646.6 251 2637.1 254.5C2627.6 258 2619.35 262.75 2612.35 268.75C2605.85 274.75 2600.6 282.25 2596.6 291.25C2593.1 299.75 2591.85 309.5 2592.85 320.5C2593.35 328.5 2595.6 335.25 2599.6 340.75C2604.1 346.25 2609.35 350.75 2615.35 354.25C2621.85 357.75 2628.85 360.5 2636.35 362.5C2643.85 364.5 2651.35 366 2658.85 367C2681.35 370 2703.85 372.25 2726.35 373.75C2748.85 375.25 2770.85 380.25 2792.35 388.75C2814.35 397.25 2833.1 408.75 2848.6 423.25C2864.1 437.75 2875.1 455.25 2881.6 475.75Z" fill="#203636"/>
<path d="M964.061 600.25C970.061 598.75 976.061 597.75 982.061 597.25C988.561 596.75 994.311 597.5 999.311 599.5C1004.81 601.5 1009.31 605 1012.81 610C1016.31 614.5 1018.06 621 1018.06 629.5C1018.06 635.5 1016.56 641.25 1013.56 646.75C1010.56 652.25 1006.81 657.25 1002.31 661.75C997.811 666.25 992.811 670.25 987.311 673.75C981.811 676.75 976.561 679.25 971.561 681.25C957.061 687.75 940.311 692.75 921.311 696.25C902.811 699.75 883.561 701 863.561 700C836.561 699 810.561 693.75 785.561 684.25C761.061 674.25 741.811 658 727.811 635.5C714.811 613.5 707.061 589 704.561 562C702.061 535 703.311 509.5 708.311 485.5C713.811 456.5 723.061 433 736.061 415C749.561 396.5 765.561 381.75 784.061 370.75C806.561 357.75 831.811 351 859.811 350.5C887.811 350 914.561 355.5 940.061 367C957.061 374.5 972.311 384.75 985.811 397.75C999.311 410.25 1009.56 425.5 1016.56 443.5C1018.56 448 1020.06 453.5 1021.06 460C1022.56 466.5 1023.56 473.5 1024.06 481C1024.56 488 1024.56 495 1024.06 502C1023.56 509 1022.31 515.25 1020.31 520.75C1017.31 529.75 1013.56 536.75 1009.06 541.75C1004.56 546.75 998.811 550.5 991.811 553C984.811 555.5 976.311 557.25 966.311 558.25C956.811 558.75 945.311 559.25 931.811 559.75C919.811 560.25 908.561 560.5 898.061 560.5C887.561 560.5 876.811 560.5 865.811 560.5C854.811 560 843.311 559.75 831.311 559.75C819.811 559.25 806.811 558.75 792.311 558.25C790.811 568.25 792.061 577 796.061 584.5C800.561 591.5 806.561 597.5 814.061 602.5C821.561 607 830.061 610.5 839.561 613C849.061 615.5 858.311 617 867.311 617.5C884.311 618.5 900.561 617.25 916.061 613.75C931.561 609.75 947.561 605.25 964.061 600.25ZM931.811 454.75C922.311 443.75 912.311 435.75 901.811 430.75C893.811 427.25 885.311 425.75 876.311 426.25C867.811 426.25 859.561 427.5 851.561 430C837.061 433.5 824.811 441 814.811 452.5C813.811 453.5 812.061 456 809.561 460C807.061 463.5 804.561 467.25 802.061 471.25C800.061 475.25 798.561 479 797.561 482.5C796.561 486 797.061 487.75 799.061 487.75H946.061C945.561 480.75 944.311 475 942.311 470.5C940.311 465.5 936.811 460.25 931.811 454.75Z" fill="#203636"/>
<path d="M188 159C188 147.954 196.954 139 208 139H376C511.31 139 621 248.69 621 384V439C621 574.31 511.31 684 376 684H208C196.954 684 188 675.046 188 664V159Z" fill="#203636"/>
<path d="M292 232C292 226.477 296.477 222 302 222H399C404.523 222 409 226.477 409 232V254C409 259.523 404.523 264 399 264H302C296.477 264 292 259.523 292 254V232Z" fill="#F08375"/>
<path d="M321 402C321 396.477 325.477 392 331 392H487C492.523 392 497 396.477 497 402V421C497 426.523 492.523 431 487 431H331C325.477 431 321 426.523 321 421V402Z" fill="#5DC8FC"/>
<path d="M232 568C232 562.477 236.477 558 242 558H369C374.523 558 379 562.477 379 568V590C379 595.523 374.523 600 369 600H242C236.477 600 232 595.523 232 590V568Z" fill="#54A871"/>
<g filter="url(#filter1_d_11_97)">
<path d="M256.909 492.545V497.545H236.545V492.545H256.909ZM286.347 492.545V497.545H265.983V492.545H286.347ZM315.784 492.545V497.545H295.42V492.545H315.784ZM345.222 492.545V497.545H324.858V492.545H345.222ZM374.659 492.545V497.545H354.295V492.545H374.659ZM404.097 492.545V497.545H383.733V492.545H404.097ZM433.534 492.545V497.545H413.17V492.545H433.534ZM462.972 492.545V497.545H442.608V492.545H462.972ZM492.409 492.545V497.545H472.045V492.545H492.409ZM521.847 492.545V497.545H501.483V492.545H521.847Z" fill="white"/>
</g>
<g filter="url(#filter2_d_11_97)">
<path d="M256.909 576.545V581.545H236.545V576.545H256.909ZM286.347 576.545V581.545H265.983V576.545H286.347ZM315.784 576.545V581.545H295.42V576.545H315.784ZM345.222 576.545V581.545H324.858V576.545H345.222ZM374.659 576.545V581.545H354.295V576.545H374.659ZM404.097 576.545V581.545H383.733V576.545H404.097ZM433.534 576.545V581.545H413.17V576.545H433.534ZM462.972 576.545V581.545H442.608V576.545H462.972Z" fill="white"/>
</g>
<g filter="url(#filter3_d_11_97)">
<path d="M256.909 324.545V329.545H236.545V324.545H256.909ZM286.347 324.545V329.545H265.983V324.545H286.347ZM315.784 324.545V329.545H295.42V324.545H315.784ZM345.222 324.545V329.545H324.858V324.545H345.222ZM374.659 324.545V329.545H354.295V324.545H374.659ZM404.097 324.545V329.545H383.733V324.545H404.097ZM433.534 324.545V329.545H413.17V324.545H433.534ZM462.972 324.545V329.545H442.608V324.545H462.972ZM492.409 324.545V329.545H472.045V324.545H492.409ZM521.847 324.545V329.545H501.483V324.545H521.847Z" fill="white"/>
</g>
<g filter="url(#filter4_d_11_97)">
<path d="M256.909 408.545V413.545H236.545V408.545H256.909ZM286.347 408.545V413.545H265.983V408.545H286.347ZM315.784 408.545V413.545H295.42V408.545H315.784ZM345.222 408.545V413.545H324.858V408.545H345.222ZM374.659 408.545V413.545H354.295V408.545H374.659ZM404.097 408.545V413.545H383.733V408.545H404.097ZM433.534 408.545V413.545H413.17V408.545H433.534ZM462.972 408.545V413.545H442.608V408.545H462.972ZM492.409 408.545V413.545H472.045V408.545H492.409ZM521.847 408.545V413.545H501.483V408.545H521.847ZM551.284 408.545V413.545H530.92V408.545H551.284Z" fill="white"/>
</g>
<g filter="url(#filter5_d_11_97)">
<path d="M256.909 240.545V245.545H236.545V240.545H256.909ZM286.347 240.545V245.545H265.983V240.545H286.347ZM315.784 240.545V245.545H295.42V240.545H315.784ZM345.222 240.545V245.545H324.858V240.545H345.222ZM374.659 240.545V245.545H354.295V240.545H374.659ZM404.097 240.545V245.545H383.733V240.545H404.097ZM433.534 240.545V245.545H413.17V240.545H433.534ZM462.972 240.545V245.545H442.608V240.545H462.972Z" fill="white"/>
</g>
<path d="M398.218 290C426.963 290 455.722 301.92 477.617 325.775C519.808 371.745 521.339 445.443 482.224 493.437L493.574 505.777L484.045 516.159L472.718 503.795C428.671 546.413 361.033 544.744 318.841 498.774C275.053 451.065 275.053 373.485 318.841 325.776C340.734 301.92 369.471 290 398.218 290ZM398.218 304.545C372.94 304.545 347.672 315.076 328.346 336.133C289.695 378.247 289.696 446.304 328.346 488.416C365.402 528.791 424.325 530.449 463.189 493.411L463.032 493.241C464.722 491.635 466.389 489.974 467.999 488.221C469.586 486.492 471.082 484.698 472.539 482.883L472.695 483.056C506.69 440.711 505.167 376.508 468.111 336.133C448.785 315.076 423.497 304.545 398.218 304.545ZM463.572 431.507C463.59 431.42 463.572 431.507 463.572 431.269C463.572 431.507 463.572 431.507 463.572 431.507ZM511.035 507.443L607.988 613.079L583.132 640.161L486.179 534.525L511.035 507.443ZM609.493 632.13L621 644.641L611.493 655L600.009 642.463L609.493 632.13Z" fill="#979797"/>
<path d="M342 442.156C342 442.07 342.07 442 342.156 442H456V463C456 494.48 430.48 520 399 520V520C367.52 520 342 494.48 342 463V442.156Z" fill="#203636"/>
</g>
<path d="M398 521C452.676 521 497 472.425 497 412.505C497 352.584 452.676 304.009 398 304.009C343.324 304.009 299 352.584 299 412.505C299 472.425 343.324 521 398 521Z" fill="#203636"/>
<mask id="mask0_11_97" style="mask-type:alpha" maskUnits="userSpaceOnUse" x="299" y="303" width="198" height="217">
<path d="M398 519.991C452.676 519.991 497 471.416 497 411.495C497 351.575 452.676 303 398 303C343.324 303 299 351.575 299 411.495C299 471.416 343.324 519.991 398 519.991Z" fill="#203636"/>
</mask>
<g mask="url(#mask0_11_97)">
<g filter="url(#filter6_d_11_97)">
<path d="M256.607 398.2C256.607 390.91 262.497 385 269.761 385H586.767C594.032 385 599.921 390.91 599.921 398.2V423.28C599.921 430.57 594.032 436.48 586.767 436.48H269.761C262.497 436.48 256.607 430.57 256.607 423.28V398.2Z" fill="#5DC8FC"/>
<path d="M128.179 516.1V526H88V516.1H128.179Z" fill="white"/>
<path d="M186.261 516.1V526H146.082V516.1H186.261Z" fill="white"/>
<path d="M244.343 516.1V526H204.164V516.1H244.343Z" fill="white"/>
<path d="M302.425 516.1V526H262.246V516.1H302.425Z" fill="white"/>
<path d="M360.507 516.1V526H320.328V516.1H360.507Z" fill="white"/>
<path d="M418.589 516.1V526H378.411V516.1H418.589Z" fill="white"/>
<path d="M476.672 516.1V526H436.493V516.1H476.672Z" fill="white"/>
<path d="M534.754 516.1V526H494.575V516.1H534.754Z" fill="white"/>
<path d="M592.836 516.1V526H552.657V516.1H592.836Z" fill="white"/>
<path d="M650.918 516.1V526H610.739V516.1H650.918Z" fill="white"/>
<path d="M128.179 405.22V415.12H88V405.22H128.179Z" fill="white"/>
<path d="M186.261 405.22V415.12H146.082V405.22H186.261Z" fill="white"/>
<path d="M244.343 405.22V415.12H204.164V405.22H244.343Z" fill="white"/>
<path d="M302.425 405.22V415.12H262.246V405.22H302.425Z" fill="white"/>
<path d="M360.507 405.22V415.12H320.328V405.22H360.507Z" fill="white"/>
<path d="M418.589 405.22V415.12H378.411V405.22H418.589Z" fill="white"/>
<path d="M476.672 405.22V415.12H436.493V405.22H476.672Z" fill="white"/>
<path d="M534.754 405.22V415.12H494.575V405.22H534.754Z" fill="white"/>
<path d="M592.836 405.22V415.12H552.657V405.22H592.836Z" fill="white"/>
<path d="M650.918 405.22V415.12H610.739V405.22H650.918Z" fill="white"/>
<path d="M709 405.22V415.12H668.821V405.22H709Z" fill="white"/>
</g>
</g>
<path d="M328 442H468V451C468 489.66 436.66 521 398 521V521C359.34 521 328 489.66 328 451V442Z" fill="#203636"/>
<defs>
<filter id="filter0_dd_11_97" x="188" y="139" width="2741.1" height="604.75" filterUnits="userSpaceOnUse" color-interpolation-filters="sRGB">
<feFlood flood-opacity="0" result="BackgroundImageFix"/>
<feColorMatrix in="SourceAlpha" type="matrix" values="0 0 0 0 0 0 0 0 0 0 0 0 0 0 0 0 0 0 127 0" result="hardAlpha"/>
<feOffset dx="40" dy="40"/>
<feComposite in2="hardAlpha" operator="out"/>
<feColorMatrix type="matrix" values="0 0 0 0 0.0784314 0 0 0 0 0.156863 0 0 0 0 0.156863 0 0 0 1 0"/>
<feBlend mode="normal" in2="BackgroundImageFix" result="effect1_dropShadow_11_97"/>
<feColorMatrix in="SourceAlpha" type="matrix" values="0 0 0 0 0 0 0 0 0 0 0 0 0 0 0 0 0 0 127 0" result="hardAlpha"/>
<feOffset dx="20" dy="20"/>
<feComposite in2="hardAlpha" operator="out"/>
<feColorMatrix type="matrix" values="0 0 0 0 0.329412 0 0 0 0 0.658824 0 0 0 0 0.443137 0 0 0 1 0"/>
<feBlend mode="normal" in2="effect1_dropShadow_11_97" result="effect2_dropShadow_11_97"/>
<feBlend mode="normal" in="SourceGraphic" in2="effect2_dropShadow_11_97" result="shape"/>
</filter>
<filter id="filter1_d_11_97" x="232.545" y="492.545" width="293.301" height="13" filterUnits="userSpaceOnUse" color-interpolation-filters="sRGB">
<feFlood flood-opacity="0" result="BackgroundImageFix"/>
<feColorMatrix in="SourceAlpha" type="matrix" values="0 0 0 0 0 0 0 0 0 0 0 0 0 0 0 0 0 0 127 0" result="hardAlpha"/>
<feOffset dy="4"/>
<feGaussianBlur stdDeviation="2"/>
<feComposite in2="hardAlpha" operator="out"/>
<feColorMatrix type="matrix" values="0 0 0 0 0 0 0 0 0 0 0 0 0 0 0 0 0 0 0.25 0"/>
<feBlend mode="normal" in2="BackgroundImageFix" result="effect1_dropShadow_11_97"/>
<feBlend mode="normal" in="SourceGraphic" in2="effect1_dropShadow_11_97" result="shape"/>
</filter>
<filter id="filter2_d_11_97" x="232.545" y="576.545" width="234.426" height="13" filterUnits="userSpaceOnUse" color-interpolation-filters="sRGB">
<feFlood flood-opacity="0" result="BackgroundImageFix"/>
<feColorMatrix in="SourceAlpha" type="matrix" values="0 0 0 0 0 0 0 0 0 0 0 0 0 0 0 0 0 0 127 0" result="hardAlpha"/>
<feOffset dy="4"/>
<feGaussianBlur stdDeviation="2"/>
<feComposite in2="hardAlpha" operator="out"/>
<feColorMatrix type="matrix" values="0 0 0 0 0 0 0 0 0 0 0 0 0 0 0 0 0 0 0.25 0"/>
<feBlend mode="normal" in2="BackgroundImageFix" result="effect1_dropShadow_11_97"/>
<feBlend mode="normal" in="SourceGraphic" in2="effect1_dropShadow_11_97" result="shape"/>
</filter>
<filter id="filter3_d_11_97" x="232.545" y="324.545" width="293.301" height="13" filterUnits="userSpaceOnUse" color-interpolation-filters="sRGB">
<feFlood flood-opacity="0" result="BackgroundImageFix"/>
<feColorMatrix in="SourceAlpha" type="matrix" values="0 0 0 0 0 0 0 0 0 0 0 0 0 0 0 0 0 0 127 0" result="hardAlpha"/>
<feOffset dy="4"/>
<feGaussianBlur stdDeviation="2"/>
<feComposite in2="hardAlpha" operator="out"/>
<feColorMatrix type="matrix" values="0 0 0 0 0 0 0 0 0 0 0 0 0 0 0 0 0 0 0.25 0"/>
<feBlend mode="normal" in2="BackgroundImageFix" result="effect1_dropShadow_11_97"/>
<feBlend mode="normal" in="SourceGraphic" in2="effect1_dropShadow_11_97" result="shape"/>
</filter>
<filter id="filter4_d_11_97" x="232.545" y="408.545" width="322.739" height="13" filterUnits="userSpaceOnUse" color-interpolation-filters="sRGB">
<feFlood flood-opacity="0" result="BackgroundImageFix"/>
<feColorMatrix in="SourceAlpha" type="matrix" values="0 0 0 0 0 0 0 0 0 0 0 0 0 0 0 0 0 0 127 0" result="hardAlpha"/>
<feOffset dy="4"/>
<feGaussianBlur stdDeviation="2"/>
<feComposite in2="hardAlpha" operator="out"/>
<feColorMatrix type="matrix" values="0 0 0 0 0 0 0 0 0 0 0 0 0 0 0 0 0 0 0.25 0"/>
<feBlend mode="normal" in2="BackgroundImageFix" result="effect1_dropShadow_11_97"/>
<feBlend mode="normal" in="SourceGraphic" in2="effect1_dropShadow_11_97" result="shape"/>
</filter>
<filter id="filter5_d_11_97" x="232.545" y="240.545" width="234.426" height="13" filterUnits="userSpaceOnUse" color-interpolation-filters="sRGB">
<feFlood flood-opacity="0" result="BackgroundImageFix"/>
<feColorMatrix in="SourceAlpha" type="matrix" values="0 0 0 0 0 0 0 0 0 0 0 0 0 0 0 0 0 0 127 0" result="hardAlpha"/>
<feOffset dy="4"/>
<feGaussianBlur stdDeviation="2"/>
<feComposite in2="hardAlpha" operator="out"/>
<feColorMatrix type="matrix" values="0 0 0 0 0 0 0 0 0 0 0 0 0 0 0 0 0 0 0.25 0"/>
<feBlend mode="normal" in2="BackgroundImageFix" result="effect1_dropShadow_11_97"/>
<feBlend mode="normal" in="SourceGraphic" in2="effect1_dropShadow_11_97" result="shape"/>
</filter>
<filter id="filter6_d_11_97" x="84" y="385" width="629" height="149" filterUnits="userSpaceOnUse" color-interpolation-filters="sRGB">
<feFlood flood-opacity="0" result="BackgroundImageFix"/>
<feColorMatrix in="SourceAlpha" type="matrix" values="0 0 0 0 0 0 0 0 0 0 0 0 0 0 0 0 0 0 127 0" result="hardAlpha"/>
<feOffset dy="4"/>
<feGaussianBlur stdDeviation="2"/>
<feComposite in2="hardAlpha" operator="out"/>
<feColorMatrix type="matrix" values="0 0 0 0 0 0 0 0 0 0 0 0 0 0 0 0 0 0 0.25 0"/>
<feBlend mode="normal" in2="BackgroundImageFix" result="effect1_dropShadow_11_97"/>
<feBlend mode="normal" in="SourceGraphic" in2="effect1_dropShadow_11_97" result="shape"/>
</filter>
</defs>
</svg>
