<svg width="438" height="545" viewBox="0 0 438 545" fill="none" xmlns="http://www.w3.org/2000/svg">
<path d="M0.5 0.5H188C323.034 0.5 432.5 109.966 432.5 245V300C432.5 435.034 323.034 544.5 188 544.5H0.5V0.5Z" fill="#203636" stroke="white"/>
<path d="M104 93C104 87.4772 108.477 83 114 83H211C216.523 83 221 87.4772 221 93V115C221 120.523 216.523 125 211 125H114C108.477 125 104 120.523 104 115V93Z" fill="#F08375"/>
<path d="M133 263C133 257.477 137.477 253 143 253H299C304.523 253 309 257.477 309 263V282C309 287.523 304.523 292 299 292H143C137.477 292 133 287.523 133 282V263Z" fill="#5DC8FC"/>
<path d="M44 429C44 423.477 48.4772 419 54 419H181C186.523 419 191 423.477 191 429V451C191 456.523 186.523 461 181 461H54C48.4772 461 44 456.523 44 451V429Z" fill="#54A871"/>
<g filter="url(#filter0_d_4_201)">
<path d="M68.9091 353.545V358.545H48.5455V353.545H68.9091ZM98.3466 353.545V358.545H77.983V353.545H98.3466ZM127.784 353.545V358.545H107.42V353.545H127.784ZM157.222 353.545V358.545H136.858V353.545H157.222ZM186.659 353.545V358.545H166.295V353.545H186.659ZM216.097 353.545V358.545H195.733V353.545H216.097ZM245.534 353.545V358.545H225.17V353.545H245.534ZM274.972 353.545V358.545H254.608V353.545H274.972ZM304.409 353.545V358.545H284.045V353.545H304.409ZM333.847 353.545V358.545H313.483V353.545H333.847Z" fill="white"/>
</g>
<g filter="url(#filter1_d_4_201)">
<path d="M68.9091 437.545V442.545H48.5455V437.545H68.9091ZM98.3466 437.545V442.545H77.983V437.545H98.3466ZM127.784 437.545V442.545H107.42V437.545H127.784ZM157.222 437.545V442.545H136.858V437.545H157.222ZM186.659 437.545V442.545H166.295V437.545H186.659ZM216.097 437.545V442.545H195.733V437.545H216.097ZM245.534 437.545V442.545H225.17V437.545H245.534ZM274.972 437.545V442.545H254.608V437.545H274.972Z" fill="white"/>
</g>
<g filter="url(#filter2_d_4_201)">
<path d="M68.9091 185.545V190.545H48.5455V185.545H68.9091ZM98.3466 185.545V190.545H77.983V185.545H98.3466ZM127.784 185.545V190.545H107.42V185.545H127.784ZM157.222 185.545V190.545H136.858V185.545H157.222ZM186.659 185.545V190.545H166.295V185.545H186.659ZM216.097 185.545V190.545H195.733V185.545H216.097ZM245.534 185.545V190.545H225.17V185.545H245.534ZM274.972 185.545V190.545H254.608V185.545H274.972ZM304.409 185.545V190.545H284.045V185.545H304.409ZM333.847 185.545V190.545H313.483V185.545H333.847Z" fill="white"/>
</g>
<g filter="url(#filter3_d_4_201)">
<path d="M68.9091 269.545V274.545H48.5455V269.545H68.9091ZM98.3466 269.545V274.545H77.983V269.545H98.3466ZM127.784 269.545V274.545H107.42V269.545H127.784ZM157.222 269.545V274.545H136.858V269.545H157.222ZM186.659 269.545V274.545H166.295V269.545H186.659ZM216.097 269.545V274.545H195.733V269.545H216.097ZM245.534 269.545V274.545H225.17V269.545H245.534ZM274.972 269.545V274.545H254.608V269.545H274.972ZM304.409 269.545V274.545H284.045V269.545H304.409ZM333.847 269.545V274.545H313.483V269.545H333.847ZM363.284 269.545V274.545H342.92V269.545H363.284Z" fill="white"/>
</g>
<g filter="url(#filter4_d_4_201)">
<path d="M68.9091 101.545V106.545H48.5455V101.545H68.9091ZM98.3466 101.545V106.545H77.983V101.545H98.3466ZM127.784 101.545V106.545H107.42V101.545H127.784ZM157.222 101.545V106.545H136.858V101.545H157.222ZM186.659 101.545V106.545H166.295V101.545H186.659ZM216.097 101.545V106.545H195.733V101.545H216.097ZM245.534 101.545V106.545H225.17V101.545H245.534ZM274.972 101.545V106.545H254.608V101.545H274.972Z" fill="white"/>
</g>
<g filter="url(#filter5_d_4_201)">
<path d="M210.218 151C238.963 151 267.722 162.92 289.617 186.775C331.808 232.745 333.339 306.443 294.224 354.437L305.574 366.777L296.045 377.159L284.718 364.795C240.671 407.413 173.033 405.744 130.841 359.774C87.0534 312.065 87.0527 234.485 130.841 186.776C152.734 162.92 181.471 151 210.218 151ZM210.218 165.545C184.94 165.545 159.672 176.076 140.346 197.133C101.695 239.247 101.696 307.304 140.346 349.416C177.402 389.791 236.325 391.449 275.189 354.411L275.032 354.241C276.722 352.635 278.389 350.974 279.999 349.221C281.586 347.492 283.082 345.698 284.539 343.883L284.695 344.056C318.69 301.711 317.167 237.508 280.111 197.133C260.785 176.076 235.497 165.545 210.218 165.545ZM275.572 292.507C275.59 292.42 275.572 292.507 275.572 292.269C275.572 292.507 275.572 292.507 275.572 292.507ZM323.035 368.443L419.988 474.079L395.132 501.161L298.179 395.525L323.035 368.443ZM421.493 493.13L433 505.641L423.493 516L412.009 503.463L421.493 493.13Z" fill="black"/>
<path d="M210.218 151C238.963 151 267.722 162.92 289.617 186.775C331.808 232.745 333.339 306.443 294.224 354.437L305.574 366.777L296.045 377.159L284.718 364.795C240.671 407.413 173.033 405.744 130.841 359.774C87.0534 312.065 87.0527 234.485 130.841 186.776C152.734 162.92 181.471 151 210.218 151ZM210.218 165.545C184.94 165.545 159.672 176.076 140.346 197.133C101.695 239.247 101.696 307.304 140.346 349.416C177.402 389.791 236.325 391.449 275.189 354.411L275.032 354.241C276.722 352.635 278.389 350.974 279.999 349.221C281.586 347.492 283.082 345.698 284.539 343.883L284.695 344.056C318.69 301.711 317.167 237.508 280.111 197.133C260.785 176.076 235.497 165.545 210.218 165.545ZM275.572 292.507C275.59 292.42 275.572 292.507 275.572 292.269C275.572 292.507 275.572 292.507 275.572 292.507ZM323.035 368.443L419.988 474.079L395.132 501.161L298.179 395.525L323.035 368.443ZM421.493 493.13L433 505.641L423.493 516L412.009 503.463L421.493 493.13Z" stroke="white"/>
</g>
<path d="M210.5 381C264.9 381 309 332.871 309 273.5C309 214.129 264.9 166 210.5 166C156.1 166 112 214.129 112 273.5C112 332.871 156.1 381 210.5 381Z" fill="#203636"/>
<mask id="mask0_4_201" style="mask-type:alpha" maskUnits="userSpaceOnUse" x="112" y="165" width="197" height="215">
<path d="M210.5 380C264.9 380 309 331.871 309 272.5C309 213.129 264.9 165 210.5 165C156.1 165 112 213.129 112 272.5C112 331.871 156.1 380 210.5 380Z" fill="#203636"/>
</mask>
<g mask="url(#mask0_4_201)">
<g filter="url(#filter6_d_4_201)">
<path d="M70.4353 263.013C70.4353 255.826 76.2486 250 83.4197 250H396.342C403.513 250 409.326 255.826 409.326 263.013V287.737C409.326 294.924 403.513 300.75 396.342 300.75H83.4196C76.2486 300.75 70.4353 294.924 70.4353 287.737V263.013Z" fill="#5DC8FC"/>
<path d="M-56.3388 379.24V389H-96V379.24H-56.3388Z" fill="white"/>
<path d="M0.995064 379.24V389H-38.6661V379.24H0.995064Z" fill="white"/>
<path d="M58.3289 379.24V389H18.6678V379.24H58.3289Z" fill="white"/>
<path d="M115.663 379.24V389H76.0016V379.24H115.663Z" fill="white"/>
<path d="M172.997 379.24V389H133.336V379.24H172.997Z" fill="white"/>
<path d="M230.331 379.24V389H190.669V379.24H230.331Z" fill="white"/>
<path d="M287.664 379.24V389H248.003V379.24H287.664Z" fill="white"/>
<path d="M344.998 379.24V389H305.337V379.24H344.998Z" fill="white"/>
<path d="M402.332 379.24V389H362.671V379.24H402.332Z" fill="white"/>
<path d="M459.666 379.24V389H420.005V379.24H459.666Z" fill="white"/>
<path d="M-56.3388 269.933V279.693H-96V269.933H-56.3388Z" fill="white"/>
<path d="M0.995064 269.933V279.693H-38.6661V269.933H0.995064Z" fill="white"/>
<path d="M58.3289 269.933V279.693H18.6678V269.933H58.3289Z" fill="white"/>
<path d="M115.663 269.933V279.693H76.0016V269.933H115.663Z" fill="white"/>
<path d="M172.997 269.933V279.693H133.336V269.933H172.997Z" fill="white"/>
<path d="M230.331 269.933V279.693H190.669V269.933H230.331Z" fill="white"/>
<path d="M287.664 269.933V279.693H248.003V269.933H287.664Z" fill="white"/>
<path d="M344.998 269.933V279.693H305.337V269.933H344.998Z" fill="white"/>
<path d="M402.332 269.933V279.693H362.671V269.933H402.332Z" fill="white"/>
<path d="M459.666 269.933V279.693H420.005V269.933H459.666Z" fill="white"/>
<path d="M517 269.933V279.693H477.339V269.933H517Z" fill="white"/>
</g>
</g>
<path d="M154 303H268V324C268 355.48 242.48 381 211 381V381C179.52 381 154 355.48 154 324V303Z" fill="#203636"/>
<defs>
<filter id="filter0_d_4_201" x="44.5454" y="353.545" width="293.301" height="13" filterUnits="userSpaceOnUse" color-interpolation-filters="sRGB">
<feFlood flood-opacity="0" result="BackgroundImageFix"/>
<feColorMatrix in="SourceAlpha" type="matrix" values="0 0 0 0 0 0 0 0 0 0 0 0 0 0 0 0 0 0 127 0" result="hardAlpha"/>
<feOffset dy="4"/>
<feGaussianBlur stdDeviation="2"/>
<feComposite in2="hardAlpha" operator="out"/>
<feColorMatrix type="matrix" values="0 0 0 0 0 0 0 0 0 0 0 0 0 0 0 0 0 0 0.25 0"/>
<feBlend mode="normal" in2="BackgroundImageFix" result="effect1_dropShadow_4_201"/>
<feBlend mode="normal" in="SourceGraphic" in2="effect1_dropShadow_4_201" result="shape"/>
</filter>
<filter id="filter1_d_4_201" x="44.5454" y="437.545" width="234.426" height="13" filterUnits="userSpaceOnUse" color-interpolation-filters="sRGB">
<feFlood flood-opacity="0" result="BackgroundImageFix"/>
<feColorMatrix in="SourceAlpha" type="matrix" values="0 0 0 0 0 0 0 0 0 0 0 0 0 0 0 0 0 0 127 0" result="hardAlpha"/>
<feOffset dy="4"/>
<feGaussianBlur stdDeviation="2"/>
<feComposite in2="hardAlpha" operator="out"/>
<feColorMatrix type="matrix" values="0 0 0 0 0 0 0 0 0 0 0 0 0 0 0 0 0 0 0.25 0"/>
<feBlend mode="normal" in2="BackgroundImageFix" result="effect1_dropShadow_4_201"/>
<feBlend mode="normal" in="SourceGraphic" in2="effect1_dropShadow_4_201" result="shape"/>
</filter>
<filter id="filter2_d_4_201" x="44.5454" y="185.545" width="293.301" height="13" filterUnits="userSpaceOnUse" color-interpolation-filters="sRGB">
<feFlood flood-opacity="0" result="BackgroundImageFix"/>
<feColorMatrix in="SourceAlpha" type="matrix" values="0 0 0 0 0 0 0 0 0 0 0 0 0 0 0 0 0 0 127 0" result="hardAlpha"/>
<feOffset dy="4"/>
<feGaussianBlur stdDeviation="2"/>
<feComposite in2="hardAlpha" operator="out"/>
<feColorMatrix type="matrix" values="0 0 0 0 0 0 0 0 0 0 0 0 0 0 0 0 0 0 0.25 0"/>
<feBlend mode="normal" in2="BackgroundImageFix" result="effect1_dropShadow_4_201"/>
<feBlend mode="normal" in="SourceGraphic" in2="effect1_dropShadow_4_201" result="shape"/>
</filter>
<filter id="filter3_d_4_201" x="44.5454" y="269.545" width="322.739" height="13" filterUnits="userSpaceOnUse" color-interpolation-filters="sRGB">
<feFlood flood-opacity="0" result="BackgroundImageFix"/>
<feColorMatrix in="SourceAlpha" type="matrix" values="0 0 0 0 0 0 0 0 0 0 0 0 0 0 0 0 0 0 127 0" result="hardAlpha"/>
<feOffset dy="4"/>
<feGaussianBlur stdDeviation="2"/>
<feComposite in2="hardAlpha" operator="out"/>
<feColorMatrix type="matrix" values="0 0 0 0 0 0 0 0 0 0 0 0 0 0 0 0 0 0 0.25 0"/>
<feBlend mode="normal" in2="BackgroundImageFix" result="effect1_dropShadow_4_201"/>
<feBlend mode="normal" in="SourceGraphic" in2="effect1_dropShadow_4_201" result="shape"/>
</filter>
<filter id="filter4_d_4_201" x="44.5454" y="101.545" width="234.426" height="13" filterUnits="userSpaceOnUse" color-interpolation-filters="sRGB">
<feFlood flood-opacity="0" result="BackgroundImageFix"/>
<feColorMatrix in="SourceAlpha" type="matrix" values="0 0 0 0 0 0 0 0 0 0 0 0 0 0 0 0 0 0 127 0" result="hardAlpha"/>
<feOffset dy="4"/>
<feGaussianBlur stdDeviation="2"/>
<feComposite in2="hardAlpha" operator="out"/>
<feColorMatrix type="matrix" values="0 0 0 0 0 0 0 0 0 0 0 0 0 0 0 0 0 0 0.25 0"/>
<feBlend mode="normal" in2="BackgroundImageFix" result="effect1_dropShadow_4_201"/>
<feBlend mode="normal" in="SourceGraphic" in2="effect1_dropShadow_4_201" result="shape"/>
</filter>
<filter id="filter5_d_4_201" x="93.5" y="150.5" width="344.179" height="374.24" filterUnits="userSpaceOnUse" color-interpolation-filters="sRGB">
<feFlood flood-opacity="0" result="BackgroundImageFix"/>
<feColorMatrix in="SourceAlpha" type="matrix" values="0 0 0 0 0 0 0 0 0 0 0 0 0 0 0 0 0 0 127 0" result="hardAlpha"/>
<feOffset dy="4"/>
<feGaussianBlur stdDeviation="2"/>
<feComposite in2="hardAlpha" operator="out"/>
<feColorMatrix type="matrix" values="0 0 0 0 0 0 0 0 0 0 0 0 0 0 0 0 0 0 0.25 0"/>
<feBlend mode="normal" in2="BackgroundImageFix" result="effect1_dropShadow_4_201"/>
<feBlend mode="normal" in="SourceGraphic" in2="effect1_dropShadow_4_201" result="shape"/>
</filter>
<filter id="filter6_d_4_201" x="-100" y="250" width="621" height="147" filterUnits="userSpaceOnUse" color-interpolation-filters="sRGB">
<feFlood flood-opacity="0" result="BackgroundImageFix"/>
<feColorMatrix in="SourceAlpha" type="matrix" values="0 0 0 0 0 0 0 0 0 0 0 0 0 0 0 0 0 0 127 0" result="hardAlpha"/>
<feOffset dy="4"/>
<feGaussianBlur stdDeviation="2"/>
<feComposite in2="hardAlpha" operator="out"/>
<feColorMatrix type="matrix" values="0 0 0 0 0 0 0 0 0 0 0 0 0 0 0 0 0 0 0.25 0"/>
<feBlend mode="normal" in2="BackgroundImageFix" result="effect1_dropShadow_4_201"/>
<feBlend mode="normal" in="SourceGraphic" in2="effect1_dropShadow_4_201" result="shape"/>
</filter>
</defs>
</svg>
